<svg width="52" height="51" viewBox="0 0 52 51" fill="none" xmlns="http://www.w3.org/2000/svg">
<path d="M51.0126 11.3965C51.0126 11.44 51.0126 11.4835 51.0126 11.527C51.0126 12.9647 50.4397 14.3436 49.4199 15.3604C48.4001 16.3772 47.0169 16.9488 45.5744 16.9494H26.2677C25.8828 16.9494 25.5018 17.0249 25.1463 17.1717C24.7907 17.3185 24.4677 17.5336 24.1956 17.8048C23.9235 18.076 23.7076 18.398 23.5604 18.7523C23.4131 19.1067 23.3373 19.4865 23.3373 19.87V45.8763C23.351 46.1357 23.3848 46.3936 23.4384 46.6477C23.459 46.7484 23.482 46.8468 23.5095 46.9453C23.8522 48.175 24.619 49.2449 25.6752 49.9666C25.796 50.0492 25.9209 50.1256 26.0495 50.1955C26.2546 50.3162 26.467 50.424 26.6856 50.5182L26.7867 50.5617L26.9084 50.6098L27.0898 50.6761L27.2735 50.7357C27.3355 50.7563 27.3998 50.7723 27.4618 50.7906C27.5239 50.8089 27.5882 50.8249 27.6525 50.8387L27.8109 50.8753L27.9028 50.8936L28.1531 50.9371C28.2381 50.9371 28.323 50.96 28.408 50.9668H28.4539L28.64 50.9829H28.8329H23.1949C21.8023 50.9813 20.4633 50.4481 19.453 49.4927C18.4428 48.5374 17.8383 47.2326 17.7637 45.8466C17.7637 45.7527 17.7637 45.6566 17.7637 45.5605V16.9494C17.7637 16.9059 17.7637 16.8601 17.7637 16.8166C17.7637 15.3803 18.3357 14.0027 19.354 12.9865C20.3724 11.9702 21.7538 11.3984 23.1949 11.3965H45.5653C46.508 11.3916 47.4329 11.1397 48.2471 10.666C49.0613 10.1924 49.7363 9.51365 50.2042 8.69794C50.7373 7.79243 51.0165 6.7608 51.0126 5.71094V11.3965Z" fill="url(#paint0_linear_2454_9314)"/>
<path d="M51.0124 5.69933C51.0184 6.75308 50.7391 7.78892 50.2041 8.69777C49.7384 9.51428 49.0655 10.1944 48.2529 10.6701C47.4404 11.1457 46.5166 11.4001 45.5743 11.4078H42.5108C42.9636 11.4086 43.4104 11.3036 43.8152 11.1011C44.4073 10.8082 44.8827 10.3244 45.1641 9.72829C45.4455 9.13214 45.5164 8.45867 45.3653 7.81728C45.2142 7.17589 44.85 6.60426 44.3318 6.19525C43.8135 5.78624 43.1718 5.56388 42.5108 5.56429H8.4971C8.10523 5.55335 7.71513 5.62084 7.34987 5.76276C6.98462 5.90467 6.65162 6.11813 6.37056 6.39053C6.08951 6.66292 5.8661 6.98871 5.71355 7.34864C5.56099 7.70857 5.48239 8.09533 5.48239 8.48605C5.48239 8.87678 5.56099 9.26354 5.71355 9.62347C5.8661 9.9834 6.08951 10.3092 6.37056 10.5816C6.65162 10.854 6.98462 11.0674 7.34987 11.2093C7.71513 11.3513 8.10523 11.4188 8.4971 11.4078H8.78646C9.49628 11.409 10.1988 11.5506 10.8533 11.8244C11.8546 12.2417 12.7099 12.9444 13.3121 13.8443C13.9143 14.7441 14.2365 15.8012 14.2384 16.8828C14.2395 16.905 14.2395 16.9271 14.2384 16.9492V22.4425C14.2392 21.966 14.1782 21.4913 14.057 21.0303C13.7508 19.868 13.0692 18.8386 12.1174 18.101C11.1656 17.3634 9.99666 16.9586 8.79105 16.9492H5.43814C4.72372 16.9495 4.01624 16.8095 3.35617 16.537C2.6961 16.2646 2.09638 15.8652 1.59131 15.3616C1.08624 14.858 0.685732 14.2601 0.412681 13.6021C0.139631 12.9441 -0.000601778 12.2389 1.94103e-06 11.5268C1.94103e-06 11.4834 1.94103e-06 11.4399 1.94103e-06 11.3964V5.55284C1.94103e-06 5.50935 1.94103e-06 5.46358 1.94103e-06 5.42009C1.94103e-06 3.98259 0.572948 2.60397 1.5928 1.58751C2.61265 0.571043 3.99586 0 5.43814 0L45.5743 0C48.5299 0 50.9367 2.472 51.0101 5.55284C51.0124 5.60091 51.0124 5.65126 51.0124 5.69933Z" fill="url(#paint1_linear_2454_9314)"/>
<path d="M34.6782 19.9929V45.5918C34.6782 45.6879 34.6782 45.7841 34.6782 45.8779C34.6644 46.1086 34.6345 46.338 34.5886 46.5646C34.3182 47.9415 33.5189 49.1587 32.361 49.9567C31.4091 50.6232 30.277 50.9871 29.1137 51.0004H28.8588H28.6659L28.4799 50.9844H28.434C28.349 50.9844 28.264 50.9661 28.1791 50.9547L27.9287 50.9112L27.8369 50.8929L27.6784 50.8562C27.6141 50.8425 27.5498 50.8265 27.4878 50.8082C27.4258 50.7899 27.3615 50.7738 27.2995 50.7532L27.1158 50.6937L26.9344 50.6273L26.8126 50.5793L26.7116 50.5358C26.493 50.4415 26.2805 50.3338 26.0755 50.2131C25.9469 50.1431 25.8219 50.0667 25.7011 49.9842C24.645 49.2625 23.8781 48.1926 23.5355 46.9628C23.508 46.8644 23.485 46.766 23.4643 46.6653C23.4107 46.4111 23.377 46.1533 23.3633 45.8939C23.3633 45.8001 23.3633 45.7039 23.3633 45.6078V42.5384C23.3632 42.6539 23.3701 42.7693 23.3839 42.884C23.3839 42.9252 23.3954 42.9687 23.4023 43.0099C23.4204 43.1347 23.448 43.2579 23.485 43.3784C23.5304 43.5362 23.5904 43.6895 23.6641 43.8362C23.8987 44.3203 24.2652 44.7289 24.7216 45.0155C25.178 45.302 25.706 45.4549 26.2454 45.4567H26.2936C26.7076 45.4495 27.115 45.3523 27.4874 45.1721C27.8598 44.9918 28.1884 44.7328 28.4501 44.413C28.473 44.3855 28.496 44.3581 28.5167 44.3283C28.7568 44.0201 28.9318 43.6666 29.0311 43.2892C29.0949 43.0424 29.1273 42.7887 29.1275 42.5338V25.4084C29.1254 24.561 29.3219 23.7248 29.7015 22.9666C30.0811 22.2084 30.6332 21.549 31.3138 21.0412C32.23 20.3563 33.3447 19.9868 34.4899 19.9883L34.6782 19.9929Z" fill="url(#paint2_linear_2454_9314)"/>
<defs>
<linearGradient id="paint0_linear_2454_9314" x1="18.9154" y1="47.6192" x2="48.9216" y2="10.4376" gradientUnits="userSpaceOnUse">
<stop offset="0.790793" stop-color="#F15412"/>
<stop offset="1" stop-color="#7F2F0D"/>
</linearGradient>
<linearGradient id="paint1_linear_2454_9314" x1="8.2793" y1="31.6119" x2="53.4391" y2="2.25799" gradientUnits="userSpaceOnUse">
<stop offset="0.0001" stop-color="#7F2F0D"/>
<stop offset="0.155653" stop-color="#F15412"/>
</linearGradient>
<linearGradient id="paint2_linear_2454_9314" x1="23.4856" y1="49.5779" x2="37.5102" y2="20.8763" gradientUnits="userSpaceOnUse">
<stop stop-color="#7F2F0D"/>
<stop offset="0.169964" stop-color="#F15412"/>
</linearGradient>
</defs>
</svg>
